<svg width="22" height="20" viewBox="0 0 22 20" fill="none" xmlns="http://www.w3.org/2000/svg">
<g clip-path="url(#clip0)">
<path d="M7.45361 1.81818C7.45361 1.22197 7.94781 0.78624 8.58105 0.78624H13.2158C13.8488 0.78624 14.343 1.22197 14.343 1.81818V2.9484H15.1781V1.81818C15.1781 0.788543 14.3094 0 13.2158 0H8.58105C7.48745 0 6.61853 0.788543 6.61853 1.81818V2.9484H7.45361V1.81818Z" fill="#858796"/>
<path d="M5.96102 20H15.8358C16.7879 20 17.5267 19.2115 17.5267 18.231V6.09337H4.26987V18.231C4.26987 19.2115 5.00872 20 5.96102 20ZM13.5601 7.97048C13.5601 7.75338 13.7471 7.57736 13.9777 7.57736C14.2082 7.57736 14.3952 7.75338 14.3952 7.97048V17.258C14.3952 17.475 14.2082 17.6511 13.9777 17.6511C13.7471 17.6511 13.5601 17.475 13.5601 17.258V7.97048ZM10.4808 7.97048C10.4808 7.75338 10.6677 7.57736 10.8983 7.57736C11.1289 7.57736 11.3158 7.75338 11.3158 7.97048V17.258C11.3158 17.475 11.1289 17.6511 10.8983 17.6511C10.6677 17.6511 10.4808 17.475 10.4808 17.258V7.97048ZM7.40141 7.97048C7.40141 7.75338 7.58837 7.57736 7.81895 7.57736C8.04954 7.57736 8.23649 7.75338 8.23649 7.97048V17.258C8.23649 17.475 8.04954 17.6511 7.81895 17.6511C7.58837 17.6511 7.40141 17.475 7.40141 17.258V7.97048Z" fill="#858796"/>
<path d="M3.84194 5.30712H17.9547C18.5313 5.30712 18.9985 4.86717 18.9985 4.32432C18.9985 3.78148 18.5313 3.34152 17.9547 3.34152H3.84194C3.26538 3.34152 2.7981 3.78148 2.7981 4.32432C2.7981 4.86717 3.26538 5.30712 3.84194 5.30712Z" fill="#858796"/>
</g>
<defs>
<clipPath id="clip0">
<rect width="21.2423" height="20" fill="white" transform="translate(0.292847)"/>
</clipPath>
</defs>
</svg>
