<svg width="22" height="20" viewBox="0 0 22 20" fill="none" xmlns="http://www.w3.org/2000/svg">
<g clip-path="url(#clip0)">
<path d="M13.4271 7.79551C13.1755 7.55719 12.8965 7.34594 12.5953 7.16562C11.7975 6.68466 10.8701 6.42908 9.92278 6.42908C8.60794 6.42677 7.34653 6.91864 6.41843 7.79551L1.91586 12.0381C0.989332 12.9121 0.468574 14.0963 0.467744 15.3311C0.466002 17.908 2.68327 19.9983 5.42022 19.9999C6.73302 20.0042 7.99327 19.5147 8.92104 18.6402L12.6378 15.1408C12.7053 15.0778 12.743 14.9918 12.7425 14.9023C12.7414 14.7182 12.5819 14.5699 12.3864 14.5709H12.2449C11.4683 14.5735 10.6987 14.4331 9.97944 14.1577C9.84691 14.1063 9.69459 14.1353 9.59362 14.231L6.9211 16.7505C6.09122 17.5319 4.74573 17.5319 3.91585 16.7505C3.08597 15.9692 3.08597 14.7024 3.91585 13.921L8.43613 9.66849C9.26534 8.88875 10.6086 8.88875 11.4378 9.66849C11.9967 10.1637 12.8684 10.1637 13.4272 9.66849C13.6676 9.44193 13.8134 9.14144 13.8378 8.82197C13.8636 8.4402 13.7141 8.06632 13.4271 7.79551Z" fill="#858796"/>
<path d="M20.2554 1.36667C18.32 -0.455538 15.1821 -0.455538 13.2467 1.36667L9.53349 4.85937C9.43153 4.95583 9.40212 5.10093 9.45916 5.22598C9.51553 5.35139 9.64727 5.43188 9.79188 5.42927H9.92284C10.6985 5.42794 11.4668 5.56944 12.1847 5.84587C12.3173 5.89723 12.4696 5.86825 12.5706 5.77256L15.236 3.26633C16.0659 2.48499 17.4114 2.48499 18.2412 3.26633C19.0711 4.04768 19.0711 5.31448 18.2412 6.09582L14.9209 9.21858L14.8926 9.24858L13.7316 10.3351C12.9024 11.1148 11.5591 11.1148 10.7299 10.3351C10.171 9.83988 9.29933 9.83988 8.74053 10.3351C8.49857 10.5633 8.35268 10.8665 8.32991 11.1882C8.30402 11.57 8.45356 11.9439 8.74053 12.2147C9.15024 12.6021 9.6296 12.918 10.1564 13.1479C10.2308 13.1812 10.3051 13.2079 10.3794 13.2379C10.4538 13.2679 10.5316 13.2912 10.606 13.3178C10.6803 13.3445 10.7581 13.3678 10.8325 13.3878L11.0413 13.4411C11.1829 13.4745 11.3245 13.5011 11.4696 13.5245C11.6444 13.5489 11.8205 13.5645 11.9971 13.5711H12.2448H12.2661L12.4785 13.5478C12.5563 13.5445 12.6378 13.5278 12.7298 13.5278H12.8501L13.0944 13.4945L13.2077 13.4745L13.413 13.4345H13.4519C14.3214 13.2289 15.1154 12.805 15.7492 12.208L20.2553 7.96549C22.1908 6.14328 22.1908 3.18889 20.2554 1.36667Z" fill="#858796"/>
</g>
<defs>
<clipPath id="clip0">
<rect width="21.2423" height="20" fill="white" transform="translate(0.466248)"/>
</clipPath>
</defs>
</svg>
